<svg width="479" height="209" viewBox="0 0 479 209" fill="none" xmlns="http://www.w3.org/2000/svg">
<mask id="path-1-outside-1_1_5" maskUnits="userSpaceOnUse" x="-0.796875" y="0.796875" width="480" height="208" fill="black">
<rect fill="white" x="-0.796875" y="0.796875" width="480" height="208"/>
<path d="M36.9844 203.094C35.2969 203.094 33.1875 201.875 30.6562 199.438C29.1562 198.125 28.0781 196.906 27.4219 195.781C22.9219 189.688 20.6719 181.859 20.6719 172.297C20.6719 162.547 22.5938 154.203 26.4375 147.266L43.0312 113.234H42.8906C39.1406 113.609 35.8594 113.797 33.0469 113.797C16.9219 113.797 7.6875 107.891 5.34375 96.0781L5.48438 95.7969C5.29688 94.7656 5.20312 93.7812 5.20312 92.8438C5.20312 87.5 7.21875 82.9062 11.25 79.0625C9.65625 83 8.85938 86.5625 8.85938 89.75C8.85938 96.9688 13.1719 100.578 21.7969 100.578C30.4219 100.578 40.5938 98.5156 52.3125 94.3906L73.8281 50.375C66.0469 51.5 59.0625 52.0625 52.875 52.0625C31.5938 52.0625 20.9531 44.7969 20.9531 30.2656C20.9531 29.4219 21 28.9531 21.0938 28.8594C40.7812 28.8594 60 27.5 78.75 24.7812L78.6094 24.5C78.8906 24.5 79.125 24.5938 79.3125 24.7812C93.375 22.5312 105.281 20 115.031 17.1875C139.312 9.59375 158.016 5.79688 171.141 5.79688H172.266C184.734 5.79688 192.844 8.98438 196.594 15.3594C197.719 17.7031 198.281 20.2812 198.281 23.0938C198.281 27.125 197.062 32 194.625 37.7188C193.688 35.0938 191.812 33.0312 189 31.5312C185.438 29.5625 180.797 28.5781 175.078 28.5781C168.141 28.5781 159 30.1719 147.656 33.3594C129.938 38.1406 115.359 41.8906 103.922 44.6094C101.766 45.0781 100.594 45.3594 100.406 45.4531C101.344 48.1719 101.812 50.8906 101.812 53.6094C101.812 58.4844 100.219 64.25 97.0312 70.9062C95.4375 74.6562 93.0469 79.5312 89.8594 85.5312H93.375C109.406 85.5312 117.422 92.5156 117.422 106.484C117.328 109.484 117.234 110.984 117.141 110.984C115.734 108.922 113.859 107.094 111.516 105.5C107.578 103.062 103.078 101.844 98.0156 101.844C93.9844 101.844 87.8438 103.062 79.5938 105.5C78.9375 105.5 78.6094 105.734 78.6094 106.203C60.5156 138.172 48.2344 163.672 41.7656 182.703C39.9844 188.047 38.3906 194.844 36.9844 203.094Z"/>
<path d="M143.297 128.562C148.078 126.125 154.406 121.25 162.281 113.938C169.312 106.906 174.75 100.906 178.594 95.9375C184.875 87.7812 188.016 82.0625 188.016 78.7812C188.016 77.375 186.938 76.6719 184.781 76.6719C180.281 76.6719 173.766 82.0156 165.234 92.7031C160.641 98.6094 156.562 104.422 153 110.141C147.938 118.297 144.703 124.438 143.297 128.562ZM145.125 164C137.438 164 130.641 162.172 124.734 158.516C117.141 153.922 113.344 146.844 113.344 137.281C113.344 127.906 116.812 117.172 123.75 105.078C131.531 91.4844 140.578 81.2656 150.891 74.4219C159.609 68.5156 168.422 65.5625 177.328 65.5625H177.75C185.812 65.5625 192.234 67.7656 197.016 72.1719C198.984 74.2344 199.969 76.6719 199.969 79.4844C199.969 86.6094 193.781 95.9375 181.406 107.469C172.594 115.531 163.359 122.609 153.703 128.703C148.922 131.703 145.031 133.859 142.031 135.172C141.188 138.922 140.766 142.203 140.766 145.016C140.766 151.859 143.719 155.281 149.625 155.281C153.094 155.281 157.172 154.062 161.859 151.625C165.141 150.031 169.453 146.703 174.797 141.641C185.578 130.953 196.547 117.734 207.703 101.984L211.078 101.844L214.594 101.984C205.406 118.578 194.859 133.016 182.953 145.297C177.047 151.016 171.844 155.188 167.344 157.812C160.5 161.938 153.094 164 145.125 164Z"/>
<path d="M311.625 164C306.844 164 303 161.609 300.094 156.828C298.219 153.453 297.281 149.469 297.281 144.875C297.281 140.281 298.125 135.734 299.812 131.234L318.234 89.6094C313.078 94.8594 308.766 99.5469 305.297 103.672C289.453 122.609 276.281 142.016 265.781 161.891L264.797 163.859C264.422 163.859 262.922 163.438 260.297 162.594C256.359 161.094 252.844 158.984 249.75 156.266C245.344 151.859 243.141 147.5 243.141 143.188C243.141 140.094 244.594 134 247.5 124.906C249.938 117.594 252.891 110.141 256.359 102.547V102.406C239.484 122.469 225.609 142.953 214.734 163.859C209.109 162.641 204.234 160.25 200.109 156.688C195.422 152.281 193.078 147.781 193.078 143.188C193.078 139.812 194.766 133.062 198.141 122.938C202.828 109.719 207.938 98.375 213.469 88.9062C222.469 73.4375 230.625 65.7031 237.938 65.7031C247.688 65.7031 253.641 69.5 255.797 77.0938C242.203 96.4062 231.797 113.656 224.578 128.844H224.719C232.406 116.844 245.672 101.469 264.516 82.7188C272.672 74.75 277.594 70.2031 279.281 69.0781C282.375 66.8281 285.234 65.7031 287.859 65.7031C296.578 65.7031 302.344 68.8438 305.156 75.125L305.859 77.0938C291.891 96.875 281.438 114.172 274.5 128.984C281.156 119.047 291.047 107.094 304.172 93.125C316.547 80.375 324.516 72.5938 328.078 69.7812C331.641 66.9688 335.953 65.5625 341.016 65.5625C347.859 65.5625 353.484 67.8125 357.891 72.3125C360.047 74.6562 361.125 76.5312 361.125 77.9375C334.781 116.656 321.609 137.984 321.609 141.922C321.609 142.297 321.797 142.484 322.172 142.484C324.422 142.297 332.953 133.812 347.766 117.031C352.734 111.5 357.141 106.719 360.984 102.688C361.266 102.406 364.031 102.266 369.281 102.266L353.25 123.359C340.969 139.484 331.5 150.969 324.844 157.812C320.625 161.938 316.219 164 311.625 164Z"/>
<path d="M366.891 164C362.203 164 358.172 159.969 354.797 151.906C352.547 145.719 351.422 140 351.422 134.75C351.422 127.719 353.062 119.984 356.344 111.547L369.281 84.2656C373.5 75.5469 375.844 70.7656 376.312 69.9219C378.188 67.3906 382.641 66.125 389.672 66.125C395.016 66.125 399.938 66.9688 404.438 68.6562C405.938 69.3125 407.203 70.1562 408.234 71.1875V71.4688C405.141 77 400.359 85.3906 393.891 96.6406C387.422 107.797 382.125 118.016 378 127.297C374.25 135.828 372.375 140.797 372.375 142.203C372.375 142.672 372.562 142.906 372.938 142.906C375.094 142.906 384.562 133.484 401.344 114.641C404.906 110.703 408.469 106.859 412.031 103.109C412.406 102.828 413.953 102.688 416.672 102.688C419.203 102.688 420.469 102.734 420.469 102.828C419.531 103.859 417.188 106.953 413.438 112.109C398.062 133.391 386.25 148.484 378 157.391C375.281 160.016 373.594 161.516 372.938 161.891C370.875 163.297 368.859 164 366.891 164ZM393.469 60.2188C388.781 60.2188 386.438 58.625 386.438 55.4375C386.438 54.2188 387.141 52.3438 388.547 49.8125C390.984 44.9375 392.953 40.8125 394.453 37.4375C397.266 30.9688 398.672 25.6719 398.672 21.5469C398.672 20.3281 398.531 19.1094 398.25 17.8906C399.094 17.6094 399.984 17.4688 400.922 17.4688C403.922 17.4688 407.344 18.5938 411.188 20.8438C412.594 21.5938 414.281 22.9531 416.25 24.9219C418.688 27.6406 419.906 30.3594 419.906 33.0781C419.906 36.7344 417.656 42.125 413.156 49.25C411.375 52.1562 409.312 54.3594 406.969 55.8594C402.656 58.7656 398.156 60.2188 393.469 60.2188Z"/>
<path d="M421.172 164C417.047 164 413.391 159.594 410.203 150.781C407.766 144.031 406.547 140.234 406.547 139.391C405.891 136.766 405.562 134 405.562 131.094C405.562 124.25 407.156 116.984 410.344 109.297L444.797 35.8906C447.891 29.4219 449.438 24.0312 449.438 19.7188C449.438 17.1875 448.875 15.2188 447.75 13.8125V13.6719H447.891C451.453 15.3594 455.062 17.5625 458.719 20.2812C466.969 26.8438 471.094 34.4375 471.094 43.0625C471.094 49.25 467.391 59.1875 459.984 72.875C456.703 78.9688 451.922 87.5 445.641 98.4688C436.734 114.312 430.172 128.469 425.953 140.938L425.812 142.062C425.812 142.438 425.953 142.625 426.234 142.625C428.484 142.625 437.719 133.438 453.938 115.062C460.312 107.844 464.062 103.719 465.188 102.688C465.469 102.5 466.969 102.406 469.688 102.406C472.219 102.406 473.484 102.453 473.484 102.547C471.047 105.641 465.984 112.438 458.297 122.938C445.453 140.469 435.562 152.797 428.625 159.922C425.719 162.641 423.234 164 421.172 164Z"/>
</mask>
<path d="M36.9844 203.094C35.2969 203.094 33.1875 201.875 30.6562 199.438C29.1562 198.125 28.0781 196.906 27.4219 195.781C22.9219 189.688 20.6719 181.859 20.6719 172.297C20.6719 162.547 22.5938 154.203 26.4375 147.266L43.0312 113.234H42.8906C39.1406 113.609 35.8594 113.797 33.0469 113.797C16.9219 113.797 7.6875 107.891 5.34375 96.0781L5.48438 95.7969C5.29688 94.7656 5.20312 93.7812 5.20312 92.8438C5.20312 87.5 7.21875 82.9062 11.25 79.0625C9.65625 83 8.85938 86.5625 8.85938 89.75C8.85938 96.9688 13.1719 100.578 21.7969 100.578C30.4219 100.578 40.5938 98.5156 52.3125 94.3906L73.8281 50.375C66.0469 51.5 59.0625 52.0625 52.875 52.0625C31.5938 52.0625 20.9531 44.7969 20.9531 30.2656C20.9531 29.4219 21 28.9531 21.0938 28.8594C40.7812 28.8594 60 27.5 78.75 24.7812L78.6094 24.5C78.8906 24.5 79.125 24.5938 79.3125 24.7812C93.375 22.5312 105.281 20 115.031 17.1875C139.312 9.59375 158.016 5.79688 171.141 5.79688H172.266C184.734 5.79688 192.844 8.98438 196.594 15.3594C197.719 17.7031 198.281 20.2812 198.281 23.0938C198.281 27.125 197.062 32 194.625 37.7188C193.688 35.0938 191.812 33.0312 189 31.5312C185.438 29.5625 180.797 28.5781 175.078 28.5781C168.141 28.5781 159 30.1719 147.656 33.3594C129.938 38.1406 115.359 41.8906 103.922 44.6094C101.766 45.0781 100.594 45.3594 100.406 45.4531C101.344 48.1719 101.812 50.8906 101.812 53.6094C101.812 58.4844 100.219 64.25 97.0312 70.9062C95.4375 74.6562 93.0469 79.5312 89.8594 85.5312H93.375C109.406 85.5312 117.422 92.5156 117.422 106.484C117.328 109.484 117.234 110.984 117.141 110.984C115.734 108.922 113.859 107.094 111.516 105.5C107.578 103.062 103.078 101.844 98.0156 101.844C93.9844 101.844 87.8438 103.062 79.5938 105.5C78.9375 105.5 78.6094 105.734 78.6094 106.203C60.5156 138.172 48.2344 163.672 41.7656 182.703C39.9844 188.047 38.3906 194.844 36.9844 203.094Z" stroke="white" strokeWidth="10" mask="url(#path-1-outside-1_1_5)"/>
<path d="M143.297 128.562C148.078 126.125 154.406 121.25 162.281 113.938C169.312 106.906 174.75 100.906 178.594 95.9375C184.875 87.7812 188.016 82.0625 188.016 78.7812C188.016 77.375 186.938 76.6719 184.781 76.6719C180.281 76.6719 173.766 82.0156 165.234 92.7031C160.641 98.6094 156.562 104.422 153 110.141C147.938 118.297 144.703 124.438 143.297 128.562ZM145.125 164C137.438 164 130.641 162.172 124.734 158.516C117.141 153.922 113.344 146.844 113.344 137.281C113.344 127.906 116.812 117.172 123.75 105.078C131.531 91.4844 140.578 81.2656 150.891 74.4219C159.609 68.5156 168.422 65.5625 177.328 65.5625H177.75C185.812 65.5625 192.234 67.7656 197.016 72.1719C198.984 74.2344 199.969 76.6719 199.969 79.4844C199.969 86.6094 193.781 95.9375 181.406 107.469C172.594 115.531 163.359 122.609 153.703 128.703C148.922 131.703 145.031 133.859 142.031 135.172C141.188 138.922 140.766 142.203 140.766 145.016C140.766 151.859 143.719 155.281 149.625 155.281C153.094 155.281 157.172 154.062 161.859 151.625C165.141 150.031 169.453 146.703 174.797 141.641C185.578 130.953 196.547 117.734 207.703 101.984L211.078 101.844L214.594 101.984C205.406 118.578 194.859 133.016 182.953 145.297C177.047 151.016 171.844 155.188 167.344 157.812C160.5 161.938 153.094 164 145.125 164Z" stroke="white" strokeWidth="10" mask="url(#path-1-outside-1_1_5)"/>
<path d="M311.625 164C306.844 164 303 161.609 300.094 156.828C298.219 153.453 297.281 149.469 297.281 144.875C297.281 140.281 298.125 135.734 299.812 131.234L318.234 89.6094C313.078 94.8594 308.766 99.5469 305.297 103.672C289.453 122.609 276.281 142.016 265.781 161.891L264.797 163.859C264.422 163.859 262.922 163.438 260.297 162.594C256.359 161.094 252.844 158.984 249.75 156.266C245.344 151.859 243.141 147.5 243.141 143.188C243.141 140.094 244.594 134 247.5 124.906C249.938 117.594 252.891 110.141 256.359 102.547V102.406C239.484 122.469 225.609 142.953 214.734 163.859C209.109 162.641 204.234 160.25 200.109 156.688C195.422 152.281 193.078 147.781 193.078 143.188C193.078 139.812 194.766 133.062 198.141 122.938C202.828 109.719 207.938 98.375 213.469 88.9062C222.469 73.4375 230.625 65.7031 237.938 65.7031C247.688 65.7031 253.641 69.5 255.797 77.0938C242.203 96.4062 231.797 113.656 224.578 128.844H224.719C232.406 116.844 245.672 101.469 264.516 82.7188C272.672 74.75 277.594 70.2031 279.281 69.0781C282.375 66.8281 285.234 65.7031 287.859 65.7031C296.578 65.7031 302.344 68.8438 305.156 75.125L305.859 77.0938C291.891 96.875 281.438 114.172 274.5 128.984C281.156 119.047 291.047 107.094 304.172 93.125C316.547 80.375 324.516 72.5938 328.078 69.7812C331.641 66.9688 335.953 65.5625 341.016 65.5625C347.859 65.5625 353.484 67.8125 357.891 72.3125C360.047 74.6562 361.125 76.5312 361.125 77.9375C334.781 116.656 321.609 137.984 321.609 141.922C321.609 142.297 321.797 142.484 322.172 142.484C324.422 142.297 332.953 133.812 347.766 117.031C352.734 111.5 357.141 106.719 360.984 102.688C361.266 102.406 364.031 102.266 369.281 102.266L353.25 123.359C340.969 139.484 331.5 150.969 324.844 157.812C320.625 161.938 316.219 164 311.625 164Z" stroke="white" strokeWidth="10" mask="url(#path-1-outside-1_1_5)"/>
<path d="M366.891 164C362.203 164 358.172 159.969 354.797 151.906C352.547 145.719 351.422 140 351.422 134.75C351.422 127.719 353.062 119.984 356.344 111.547L369.281 84.2656C373.5 75.5469 375.844 70.7656 376.312 69.9219C378.188 67.3906 382.641 66.125 389.672 66.125C395.016 66.125 399.938 66.9688 404.438 68.6562C405.938 69.3125 407.203 70.1562 408.234 71.1875V71.4688C405.141 77 400.359 85.3906 393.891 96.6406C387.422 107.797 382.125 118.016 378 127.297C374.25 135.828 372.375 140.797 372.375 142.203C372.375 142.672 372.562 142.906 372.938 142.906C375.094 142.906 384.562 133.484 401.344 114.641C404.906 110.703 408.469 106.859 412.031 103.109C412.406 102.828 413.953 102.688 416.672 102.688C419.203 102.688 420.469 102.734 420.469 102.828C419.531 103.859 417.188 106.953 413.438 112.109C398.062 133.391 386.25 148.484 378 157.391C375.281 160.016 373.594 161.516 372.938 161.891C370.875 163.297 368.859 164 366.891 164ZM393.469 60.2188C388.781 60.2188 386.438 58.625 386.438 55.4375C386.438 54.2188 387.141 52.3438 388.547 49.8125C390.984 44.9375 392.953 40.8125 394.453 37.4375C397.266 30.9688 398.672 25.6719 398.672 21.5469C398.672 20.3281 398.531 19.1094 398.25 17.8906C399.094 17.6094 399.984 17.4688 400.922 17.4688C403.922 17.4688 407.344 18.5938 411.188 20.8438C412.594 21.5938 414.281 22.9531 416.25 24.9219C418.688 27.6406 419.906 30.3594 419.906 33.0781C419.906 36.7344 417.656 42.125 413.156 49.25C411.375 52.1562 409.312 54.3594 406.969 55.8594C402.656 58.7656 398.156 60.2188 393.469 60.2188Z" stroke="white" strokeWidth="10" mask="url(#path-1-outside-1_1_5)"/>
<path d="M421.172 164C417.047 164 413.391 159.594 410.203 150.781C407.766 144.031 406.547 140.234 406.547 139.391C405.891 136.766 405.562 134 405.562 131.094C405.562 124.25 407.156 116.984 410.344 109.297L444.797 35.8906C447.891 29.4219 449.438 24.0312 449.438 19.7188C449.438 17.1875 448.875 15.2188 447.75 13.8125V13.6719H447.891C451.453 15.3594 455.062 17.5625 458.719 20.2812C466.969 26.8438 471.094 34.4375 471.094 43.0625C471.094 49.25 467.391 59.1875 459.984 72.875C456.703 78.9688 451.922 87.5 445.641 98.4688C436.734 114.312 430.172 128.469 425.953 140.938L425.812 142.062C425.812 142.438 425.953 142.625 426.234 142.625C428.484 142.625 437.719 133.438 453.938 115.062C460.312 107.844 464.062 103.719 465.188 102.688C465.469 102.5 466.969 102.406 469.688 102.406C472.219 102.406 473.484 102.453 473.484 102.547C471.047 105.641 465.984 112.438 458.297 122.938C445.453 140.469 435.562 152.797 428.625 159.922C425.719 162.641 423.234 164 421.172 164Z" stroke="white" strokeWidth="10" mask="url(#path-1-outside-1_1_5)"/>
</svg>
