<svg width="300" height="299" viewBox="0 0 300 299" fill="none" xmlns="http://www.w3.org/2000/svg">
    <rect width="299.099" height="299" rx="149.5" fill="#010000" />
    <path fill-rule="evenodd" clip-rule="evenodd"
        d="M82.8171 187.482L97.5246 157.299H97.397C94.0744 157.63 91.1674 157.795 88.676 157.795C85.8244 157.82 82.977 157.569 80.1738 157.044C77.0554 156.428 74.3757 155.435 72.1346 154.066C70.0156 152.764 68.2027 151.019 66.8202 148.95C65.4377 146.882 64.5181 144.539 64.1246 142.081L64.2522 141.83C64.0845 140.915 64.0007 140.041 64.0007 139.209C63.9805 136.992 64.4147 134.794 65.2763 132.751C66.1378 130.708 67.4086 128.863 69.0101 127.331C69.1255 127.215 69.2421 127.101 69.3601 126.988C68.1861 129.89 67.5007 132.562 67.3038 135.002C67.2633 135.49 67.2426 135.979 67.2419 136.469C67.2419 142.415 70.539 145.599 77.1332 146.023C77.6563 146.055 78.1804 146.071 78.7045 146.07C81.9859 146.05 85.2601 145.76 88.4937 145.202C91.7726 144.654 95.2447 143.849 98.9101 142.786C101.209 142.115 103.489 141.38 105.746 140.582L124.814 101.541C121.942 101.961 119.06 102.303 116.17 102.567C113.19 102.832 110.369 102.985 107.708 103.026C107.22 103.034 106.733 103.038 106.246 103.037C87.9481 103.037 78.5271 96.971 77.9827 84.8382C77.9657 84.4614 77.9572 84.0842 77.9571 83.7069C77.9568 83.5804 77.958 83.4539 77.9608 83.3274C77.9729 82.8652 78.007 82.5842 78.0629 82.4844C78.0689 82.4749 78.0763 82.4663 78.0847 82.4589C95.5291 82.4589 112.559 81.2534 129.175 78.8424L129.051 78.5906C129.163 78.59 129.274 78.6098 129.379 78.649C129.49 78.6915 129.591 78.7574 129.674 78.8424C134.092 78.1383 138.497 77.3536 142.887 76.4886C149.78 75.1262 155.927 73.6653 161.328 72.1058C182.843 65.3691 199.416 62.0008 211.047 62.0008H212.046C214.503 61.9866 216.959 62.1537 219.392 62.5008C226.348 63.5372 231.086 66.1975 233.604 70.4818C234.486 72.3426 234.985 74.3616 235.073 76.4193C235.089 76.7268 235.098 77.0346 235.099 77.3425C235.087 78.7928 234.935 80.2385 234.646 81.6597C234.141 84.2507 233.211 87.1361 231.857 90.3159C231.196 88.4804 229.985 86.8937 228.39 85.7725C227.907 85.4227 227.4 85.1069 226.873 84.8273C223.716 83.0805 219.604 82.2071 214.536 82.2071C212.418 82.2204 210.304 82.3593 208.203 82.6231C203.137 83.2313 197.149 84.5061 190.236 86.4476C186.487 87.4611 182.735 88.4647 178.981 89.4583C168.25 92.295 159.083 94.6184 151.48 96.4285C149.657 96.825 148.629 97.0707 148.396 97.1656C148.386 97.1689 148.376 97.1725 148.367 97.1766C149.128 99.3501 149.546 101.629 149.606 103.931C149.61 104.091 149.613 104.25 149.613 104.41C149.613 107.541 148.872 111.087 147.389 115.047C146.788 116.644 146.116 118.214 145.377 119.751C143.962 123.079 141.843 127.404 139.018 132.725H142.136C154.388 132.725 161.357 137.332 163.041 146.548C163.319 148.12 163.455 149.714 163.446 151.31C163.436 151.622 163.425 151.933 163.413 152.245C163.352 153.948 163.292 154.939 163.231 155.219C163.231 155.235 163.228 155.25 163.222 155.265C163.216 155.28 163.206 155.292 163.194 155.303C162.303 154.007 161.241 152.837 160.037 151.825C159.453 151.331 158.843 150.868 158.21 150.438C155.216 148.598 151.821 147.512 148.315 147.274C147.628 147.221 146.938 147.194 146.248 147.194C142.675 147.194 137.233 148.275 129.922 150.438C129.353 150.438 129.063 150.638 129.051 151.037C129.05 151.045 129.05 151.054 129.051 151.062C125.268 157.738 121.582 164.468 117.993 171.25C110.263 185.887 104.233 198.63 99.9017 209.481C98.6531 212.594 97.486 215.74 96.4017 218.914C95.7704 220.83 95.2074 222.768 94.7136 224.724C93.7973 228.307 92.9478 232.399 92.1652 237C91.6457 236.991 91.1326 236.884 90.6521 236.686C89.4636 236.221 88.0988 235.246 86.5578 233.759C86.1656 233.417 85.7862 233.06 85.4203 232.69C84.6668 231.926 84.0907 231.201 83.6921 230.515C79.7035 225.109 77.7092 218.166 77.7092 209.685C77.689 206.147 78.0101 202.615 78.6681 199.138C79.431 195.059 80.8312 191.126 82.8171 187.482V187.482Z"
        fill="white" stroke="white" stroke-width="0.25" stroke-linecap="round" />
</svg>